<svg xmlns="http://www.w3.org/2000/svg" xmlns:xlink="http://www.w3.org/1999/xlink" width="480" zoomAndPan="magnify" viewBox="0 0 360 359.999987" height="480" preserveAspectRatio="xMidYMid meet" version="1.0"><defs><g/><clipPath id="91b681ddb7"><path d="M 33.585938 31.722656 L 302 31.722656 L 302 312 L 33.585938 312 Z M 33.585938 31.722656 " clip-rule="nonzero"/></clipPath><clipPath id="55c667bd60"><path d="M 181 142 L 302 142 L 302 312.859375 L 181 312.859375 Z M 181 142 " clip-rule="nonzero"/></clipPath><clipPath id="562ef97753"><path d="M 181 221.320312 L 301.671875 221.320312 L 301.671875 312.859375 L 181 312.859375 Z M 181 221.320312 " clip-rule="nonzero"/></clipPath><clipPath id="78edf5ee5a"><path d="M 53 52.027344 L 323.777344 52.027344 L 323.777344 243 L 53 243 Z M 53 52.027344 " clip-rule="nonzero"/></clipPath><clipPath id="0f6a2f9b71"><path d="M 33.585938 139 L 155 139 L 155 310 L 33.585938 310 Z M 33.585938 139 " clip-rule="nonzero"/></clipPath><clipPath id="89c996784f"><path d="M 33.6875 142 L 154.582031 142 L 154.582031 312.859375 L 33.6875 312.859375 Z M 33.6875 142 " clip-rule="nonzero"/></clipPath><clipPath id="94ac8ed052"><path d="M 33.6875 221.320312 L 154.582031 221.320312 L 154.582031 312.859375 L 33.6875 312.859375 Z M 33.6875 221.320312 " clip-rule="nonzero"/></clipPath><clipPath id="bf11398354"><path d="M 33.6875 210.234375 L 302 210.234375 L 302 312.859375 L 33.6875 312.859375 Z M 33.6875 210.234375 " clip-rule="nonzero"/></clipPath><clipPath id="1cadd8ad7d"><path d="M 33.6875 213.257812 L 302 213.257812 L 302 312.859375 L 33.6875 312.859375 Z M 33.6875 213.257812 " clip-rule="nonzero"/></clipPath></defs><rect x="-36" width="432" fill="#ffffff" y="-35.999999" height="431.999984" fill-opacity="1"/><rect x="-36" width="432" fill="#ffffff" y="-35.999999" height="431.999984" fill-opacity="1"/><g clip-path="url(#91b681ddb7)"><path fill="#d0c0ff" d="M 301.863281 311.355469 L 33.6875 311.355469 L 33.726562 140.140625 C 33.652344 137.855469 33.550781 131.25 42.3125 124.15625 L 144.949219 39.882812 C 151.222656 34.734375 159.328125 31.890625 167.769531 31.875 C 176.222656 31.890625 184.328125 34.734375 190.601562 39.882812 L 293.238281 124.160156 C 302 131.25 301.898438 137.855469 301.824219 140.140625 L 301.863281 140.140625 L 301.863281 311.355469 " fill-opacity="1" fill-rule="nonzero"/></g><path fill="#b19bff" d="M 34.777344 311.175781 L 300.773438 311.175781 L 300.773438 141.96875 L 300.714844 141.464844 C 300.714844 141.34375 300.722656 141.191406 300.726562 141.019531 C 300.800781 138.941406 301.015625 132.613281 292.515625 125.734375 L 189.875 41.457031 C 183.804688 36.472656 175.957031 33.714844 167.777344 33.699219 C 159.597656 33.714844 151.746094 36.472656 145.671875 41.457031 L 43.035156 125.730469 C 34.535156 132.613281 34.75 138.941406 34.820312 141.019531 C 34.828125 141.191406 34.832031 141.34375 34.832031 141.464844 L 34.832031 141.96875 L 34.777344 141.96875 L 34.777344 311.175781 " fill-opacity="1" fill-rule="nonzero"/><path fill="#f3e3ff" d="M 301.878906 139.507812 L 301.878906 309.839844 L 181.1875 309.839844 L 181.1875 236.742188 L 199.703125 221.828125 L 301.878906 139.507812 " fill-opacity="1" fill-rule="nonzero"/><g clip-path="url(#55c667bd60)"><path fill="#d0c0ff" d="M 181.191406 239.765625 L 181.191406 312.859375 L 301.875 312.859375 L 301.875 142.535156 L 181.191406 239.765625 " fill-opacity="1" fill-rule="nonzero"/></g><g clip-path="url(#562ef97753)"><path fill="#b19bff" d="M 199.847656 221.808594 L 181.039062 237.164062 L 181.039062 311.835938 L 301.574219 312.402344 C 299.628906 310.160156 295.773438 305.9375 292.449219 302.59375 C 286.316406 296.410156 272.351562 284.707031 272.164062 284.554688 L 199.847656 221.808594 " fill-opacity="1" fill-rule="nonzero"/></g><g clip-path="url(#78edf5ee5a)"><path fill="#e8e8e8" d="M 75.171875 242.921875 L 75.023438 241.925781 L 53.046875 88.488281 L 54.042969 88.347656 L 301.65625 52.859375 L 301.796875 53.859375 L 323.777344 207.292969 L 322.78125 207.433594 L 75.171875 242.921875 " fill-opacity="1" fill-rule="nonzero"/></g><path fill="#ffffff" d="M 64.445312 97.035156 L 293.113281 64.261719 L 312.378906 198.746094 L 83.710938 231.519531 L 64.445312 97.035156 " fill-opacity="1" fill-rule="nonzero"/><g clip-path="url(#0f6a2f9b71)"><path fill="#f3e3ff" d="M 154.355469 236.820312 L 154.355469 309.839844 L 33.6875 309.839844 L 33.6875 139.6875 L 135.703125 221.808594 L 154.355469 236.820312 " fill-opacity="1" fill-rule="nonzero"/></g><g clip-path="url(#89c996784f)"><path fill="#d0c0ff" d="M 154.363281 239.839844 L 154.363281 312.859375 L 33.691406 312.859375 L 33.691406 142.703125 L 154.363281 239.839844 " fill-opacity="1" fill-rule="nonzero"/></g><g clip-path="url(#94ac8ed052)"><path fill="#b19bff" d="M 135.546875 221.808594 L 154.355469 237.164062 L 154.355469 311.835938 L 33.820312 312.402344 C 35.765625 310.160156 39.621094 305.9375 42.953125 302.59375 C 49.078125 296.410156 63.046875 284.707031 63.234375 284.554688 L 135.546875 221.808594 " fill-opacity="1" fill-rule="nonzero"/></g><g clip-path="url(#bf11398354)"><path fill="#f3e3ff" d="M 297.34375 308.378906 L 191.453125 218.605469 C 177.949219 207.492188 157.578125 207.492188 144.070312 218.605469 L 64.195312 284.988281 C 64.023438 285.128906 50.464844 295.898438 44.375 301.6875 C 38.328125 307.4375 33.707031 312.851562 33.707031 312.851562 L 301.820312 312.851562 C 300.554688 310.738281 297.699219 308.667969 297.34375 308.378906 " fill-opacity="1" fill-rule="nonzero"/></g><g clip-path="url(#1cadd8ad7d)"><path fill="#d0c0ff" d="M 301.820312 312.816406 L 301.820312 312.851562 L 33.707031 312.851562 L 33.707031 312.816406 L 145.160156 221.253906 C 158.015625 210.679688 177.511719 210.679688 190.363281 221.253906 L 301.820312 312.816406 " fill-opacity="1" fill-rule="nonzero"/></g><g fill="#fd6155" fill-opacity="0.302"><g transform="translate(97.539262, 145.214332)"><g><path d="M 31.195312 -21.199219 C 29.886719 -14.777344 27.316406 -10.453125 24.152344 -9.96875 C 22.9375 -9.78125 22.007812 -10.335938 21.804688 -11.648438 C 21.710938 -12.28125 21.761719 -13.234375 21.960938 -14.210938 L 27.386719 -42.164062 C 27.550781 -43.035156 27.585938 -43.789062 27.488281 -44.421875 C 27.148438 -46.65625 25.328125 -47.472656 23.53125 -47.199219 C 21.632812 -46.910156 19.714844 -45.46875 19.265625 -43.210938 C 17.421875 -45.167969 14.109375 -45.359375 11.96875 -45.03125 C 7.203125 -44.300781 2.902344 -40.855469 1.964844 -35.933594 L -2.546875 -12.402344 C -2.796875 -11.117188 -2.847656 -9.816406 -2.667969 -8.648438 C -1.878906 -3.496094 2.820312 -0.433594 8.21875 -1.257812 C 11.085938 -1.699219 14.054688 -3.445312 16.121094 -6.199219 C 18.140625 -4.070312 21.25 -3.253906 24.507812 -3.753906 C 31.800781 -4.867188 35.695312 -11.636719 37.265625 -20.882812 C 37.351562 -21.296875 37.339844 -21.691406 37.285156 -22.03125 C 37.035156 -23.6875 35.523438 -24.449219 34.015625 -24.21875 C 32.703125 -24.019531 31.460938 -23.03125 31.195312 -21.199219 Z M 8.746094 -8.855469 C 6.949219 -8.578125 5.636719 -9.671875 5.367188 -11.421875 C 5.277344 -12.003906 5.320312 -12.707031 5.453125 -13.476562 L 9.238281 -33.613281 C 9.714844 -36.027344 11.199219 -37.695312 13.144531 -37.996094 C 15.332031 -38.328125 17.554688 -36.828125 17.859375 -34.835938 C 17.910156 -34.492188 17.867188 -34.136719 17.820312 -33.785156 L 14.492188 -16.503906 C 13.417969 -10.863281 11.226562 -9.234375 8.746094 -8.855469 Z M 8.746094 -8.855469 "/></g></g></g><g fill="#fd6155" fill-opacity="0.302"><g transform="translate(128.803754, 140.427889)"><g><path d="M 24.992188 -18.160156 C 23.742188 -11.996094 21.433594 -9.203125 19.148438 -8.855469 C 18.273438 -8.71875 17.71875 -9.082031 17.59375 -9.910156 C 17.542969 -10.25 17.578125 -10.652344 17.652344 -11.164062 L 19.789062 -22.539062 C 19.980469 -23.5625 20.042969 -24.46875 19.917969 -25.296875 C 19.320312 -29.183594 15.566406 -31.597656 11.675781 -31 C 9.78125 -30.710938 8.339844 -30.042969 7.21875 -28.925781 C 6.792969 -29.753906 5.5 -30.054688 4.1875 -29.855469 C 2.828125 -29.644531 1.609375 -28.8125 1.332031 -27.378906 L -3.3125 -3.425781 C -3.390625 -2.964844 -3.378906 -2.566406 -3.320312 -2.179688 C -3.042969 -0.378906 -1.492188 0.328125 0.0625 0.0898438 C 1.765625 -0.171875 3.546875 -1.539062 3.941406 -3.839844 C 4.921875 -8.816406 6.234375 -15.835938 7.175781 -20.757812 C 8.113281 -23.390625 9.636719 -24.816406 11 -25.023438 C 11.875 -25.160156 12.597656 -24.671875 12.738281 -23.75 C 12.789062 -23.40625 12.757812 -22.957031 12.679688 -22.496094 L 10.664062 -11.933594 C 10.445312 -10.757812 10.367188 -9.648438 10.523438 -8.628906 C 11.207031 -4.15625 15.269531 -2.335938 19.402344 -2.96875 C 24.363281 -3.730469 29.148438 -7.898438 31.054688 -17.894531 C 31.140625 -18.304688 31.175781 -18.707031 31.125 -19.046875 C 30.886719 -20.605469 29.351562 -21.214844 27.890625 -20.992188 C 26.578125 -20.789062 25.230469 -19.839844 24.992188 -18.160156 Z M 24.992188 -18.160156 "/></g></g></g><g fill="#fd6155" fill-opacity="0.302"><g transform="translate(154.330756, 136.519828)"><g><path d="M 5.429688 -9.390625 L 8.484375 -25.535156 C 8.59375 -26.101562 8.617188 -26.601562 8.542969 -27.085938 C 8.238281 -29.082031 6.28125 -30.175781 4.480469 -29.898438 C 3.117188 -29.691406 1.785156 -28.640625 1.402344 -26.589844 L -1.917969 -8.960938 C -2.117188 -7.988281 -2.121094 -7.039062 -1.988281 -6.164062 C -1.484375 -2.859375 1.214844 -0.832031 4.472656 -0.683594 C -1.257812 1.535156 -6.769531 4.867188 -5.855469 10.851562 C -5.132812 15.566406 -0.277344 18.007812 4.488281 17.277344 C 9.300781 16.542969 13.429688 13.273438 14.609375 7.320312 C 14.976562 5.171875 15.425781 2.914062 15.851562 0.808594 C 22.46875 -2.445312 29.035156 -7.332031 30.828125 -18.058594 C 30.914062 -18.46875 30.902344 -18.867188 30.851562 -19.207031 C 30.597656 -20.859375 29.1875 -21.636719 27.726562 -21.414062 C 26.414062 -21.214844 25.128906 -20.171875 24.738281 -18.171875 C 23.699219 -12.933594 20.886719 -9.519531 17.394531 -6.992188 L 21.21875 -27.832031 C 21.296875 -28.292969 21.289062 -28.691406 21.234375 -29.03125 C 20.929688 -31.023438 18.972656 -32.117188 17.171875 -31.84375 C 15.808594 -31.632812 14.476562 -30.585938 14.09375 -28.535156 L 11.019531 -11.242188 C 9.867188 -8.378906 8.3125 -7.144531 7 -6.945312 C 6.125 -6.808594 5.507812 -7.261719 5.375 -8.136719 C 5.320312 -8.480469 5.351562 -8.929688 5.429688 -9.390625 Z M 7.292969 4.40625 L 6.632812 7.894531 C 6.226562 9.796875 4.863281 10.949219 3.402344 11.175781 C 2.285156 11.34375 1.695312 10.738281 1.558594 9.863281 C 1.515625 9.570312 1.503906 9.175781 1.597656 8.8125 C 2.019531 7.007812 4.257812 5.71875 7.292969 4.40625 Z M 7.292969 4.40625 "/></g></g></g><g fill="#fd6155" fill-opacity="0.502"><g transform="translate(95.293279, 142.603519)"><g><path d="M 31.195312 -21.199219 C 29.886719 -14.777344 27.316406 -10.453125 24.152344 -9.96875 C 22.9375 -9.78125 22.007812 -10.335938 21.804688 -11.648438 C 21.710938 -12.28125 21.761719 -13.234375 21.960938 -14.210938 L 27.386719 -42.164062 C 27.550781 -43.035156 27.585938 -43.789062 27.488281 -44.421875 C 27.148438 -46.65625 25.328125 -47.472656 23.53125 -47.199219 C 21.632812 -46.910156 19.714844 -45.46875 19.265625 -43.210938 C 17.421875 -45.167969 14.109375 -45.359375 11.96875 -45.03125 C 7.203125 -44.300781 2.902344 -40.855469 1.964844 -35.933594 L -2.546875 -12.402344 C -2.796875 -11.117188 -2.847656 -9.816406 -2.667969 -8.648438 C -1.878906 -3.496094 2.820312 -0.433594 8.21875 -1.257812 C 11.085938 -1.699219 14.054688 -3.445312 16.121094 -6.199219 C 18.140625 -4.070312 21.25 -3.253906 24.507812 -3.753906 C 31.800781 -4.867188 35.695312 -11.636719 37.265625 -20.882812 C 37.351562 -21.296875 37.339844 -21.691406 37.285156 -22.03125 C 37.035156 -23.6875 35.523438 -24.449219 34.015625 -24.21875 C 32.703125 -24.019531 31.460938 -23.03125 31.195312 -21.199219 Z M 8.746094 -8.855469 C 6.949219 -8.578125 5.636719 -9.671875 5.367188 -11.421875 C 5.277344 -12.003906 5.320312 -12.707031 5.453125 -13.476562 L 9.238281 -33.613281 C 9.714844 -36.027344 11.199219 -37.695312 13.144531 -37.996094 C 15.332031 -38.328125 17.554688 -36.828125 17.859375 -34.835938 C 17.910156 -34.492188 17.867188 -34.136719 17.820312 -33.785156 L 14.492188 -16.503906 C 13.417969 -10.863281 11.226562 -9.234375 8.746094 -8.855469 Z M 8.746094 -8.855469 "/></g></g></g><g fill="#fd6155" fill-opacity="0.502"><g transform="translate(126.557772, 137.817076)"><g><path d="M 24.992188 -18.160156 C 23.742188 -11.996094 21.433594 -9.203125 19.148438 -8.855469 C 18.273438 -8.71875 17.71875 -9.082031 17.59375 -9.910156 C 17.542969 -10.25 17.578125 -10.652344 17.652344 -11.164062 L 19.789062 -22.539062 C 19.980469 -23.5625 20.042969 -24.46875 19.917969 -25.296875 C 19.320312 -29.183594 15.566406 -31.597656 11.675781 -31 C 9.78125 -30.710938 8.339844 -30.042969 7.21875 -28.925781 C 6.792969 -29.753906 5.5 -30.054688 4.1875 -29.855469 C 2.828125 -29.644531 1.609375 -28.8125 1.332031 -27.378906 L -3.3125 -3.425781 C -3.390625 -2.964844 -3.378906 -2.566406 -3.320312 -2.179688 C -3.042969 -0.378906 -1.492188 0.328125 0.0625 0.0898438 C 1.765625 -0.171875 3.546875 -1.539062 3.941406 -3.839844 C 4.921875 -8.816406 6.234375 -15.835938 7.175781 -20.757812 C 8.113281 -23.390625 9.636719 -24.816406 11 -25.023438 C 11.875 -25.160156 12.597656 -24.671875 12.738281 -23.75 C 12.789062 -23.40625 12.757812 -22.957031 12.679688 -22.496094 L 10.664062 -11.933594 C 10.445312 -10.757812 10.367188 -9.648438 10.523438 -8.628906 C 11.207031 -4.15625 15.269531 -2.335938 19.402344 -2.96875 C 24.363281 -3.730469 29.148438 -7.898438 31.054688 -17.894531 C 31.140625 -18.304688 31.175781 -18.707031 31.125 -19.046875 C 30.886719 -20.605469 29.351562 -21.214844 27.890625 -20.992188 C 26.578125 -20.789062 25.230469 -19.839844 24.992188 -18.160156 Z M 24.992188 -18.160156 "/></g></g></g><g fill="#fd6155" fill-opacity="0.502"><g transform="translate(152.084774, 133.909015)"><g><path d="M 5.429688 -9.390625 L 8.484375 -25.535156 C 8.59375 -26.101562 8.617188 -26.601562 8.542969 -27.085938 C 8.238281 -29.082031 6.28125 -30.175781 4.480469 -29.898438 C 3.117188 -29.691406 1.785156 -28.640625 1.402344 -26.589844 L -1.917969 -8.960938 C -2.117188 -7.988281 -2.121094 -7.039062 -1.988281 -6.164062 C -1.484375 -2.859375 1.214844 -0.832031 4.472656 -0.683594 C -1.257812 1.535156 -6.769531 4.867188 -5.855469 10.851562 C -5.132812 15.566406 -0.277344 18.007812 4.488281 17.277344 C 9.300781 16.542969 13.429688 13.273438 14.609375 7.320312 C 14.976562 5.171875 15.425781 2.914062 15.851562 0.808594 C 22.46875 -2.445312 29.035156 -7.332031 30.828125 -18.058594 C 30.914062 -18.46875 30.902344 -18.867188 30.851562 -19.207031 C 30.597656 -20.859375 29.1875 -21.636719 27.726562 -21.414062 C 26.414062 -21.214844 25.128906 -20.171875 24.738281 -18.171875 C 23.699219 -12.933594 20.886719 -9.519531 17.394531 -6.992188 L 21.21875 -27.832031 C 21.296875 -28.292969 21.289062 -28.691406 21.234375 -29.03125 C 20.929688 -31.023438 18.972656 -32.117188 17.171875 -31.84375 C 15.808594 -31.632812 14.476562 -30.585938 14.09375 -28.535156 L 11.019531 -11.242188 C 9.867188 -8.378906 8.3125 -7.144531 7 -6.945312 C 6.125 -6.808594 5.507812 -7.261719 5.375 -8.136719 C 5.320312 -8.480469 5.351562 -8.929688 5.429688 -9.390625 Z M 7.292969 4.40625 L 6.632812 7.894531 C 6.226562 9.796875 4.863281 10.949219 3.402344 11.175781 C 2.285156 11.34375 1.695312 10.738281 1.558594 9.863281 C 1.515625 9.570312 1.503906 9.175781 1.597656 8.8125 C 2.019531 7.007812 4.257812 5.71875 7.292969 4.40625 Z M 7.292969 4.40625 "/></g></g></g><g fill="#603fa2" fill-opacity="1"><g transform="translate(93.0473, 139.992708)"><g><path d="M 31.195312 -21.199219 C 29.886719 -14.777344 27.316406 -10.453125 24.152344 -9.96875 C 22.9375 -9.78125 22.007812 -10.335938 21.804688 -11.648438 C 21.710938 -12.28125 21.761719 -13.234375 21.960938 -14.210938 L 27.386719 -42.164062 C 27.550781 -43.035156 27.585938 -43.789062 27.488281 -44.421875 C 27.148438 -46.65625 25.328125 -47.472656 23.53125 -47.199219 C 21.632812 -46.910156 19.714844 -45.46875 19.265625 -43.210938 C 17.421875 -45.167969 14.109375 -45.359375 11.96875 -45.03125 C 7.203125 -44.300781 2.902344 -40.855469 1.964844 -35.933594 L -2.546875 -12.402344 C -2.796875 -11.117188 -2.847656 -9.816406 -2.667969 -8.648438 C -1.878906 -3.496094 2.820312 -0.433594 8.21875 -1.257812 C 11.085938 -1.699219 14.054688 -3.445312 16.121094 -6.199219 C 18.140625 -4.070312 21.25 -3.253906 24.507812 -3.753906 C 31.800781 -4.867188 35.695312 -11.636719 37.265625 -20.882812 C 37.351562 -21.296875 37.339844 -21.691406 37.285156 -22.03125 C 37.035156 -23.6875 35.523438 -24.449219 34.015625 -24.21875 C 32.703125 -24.019531 31.460938 -23.03125 31.195312 -21.199219 Z M 8.746094 -8.855469 C 6.949219 -8.578125 5.636719 -9.671875 5.367188 -11.421875 C 5.277344 -12.003906 5.320312 -12.707031 5.453125 -13.476562 L 9.238281 -33.613281 C 9.714844 -36.027344 11.199219 -37.695312 13.144531 -37.996094 C 15.332031 -38.328125 17.554688 -36.828125 17.859375 -34.835938 C 17.910156 -34.492188 17.867188 -34.136719 17.820312 -33.785156 L 14.492188 -16.503906 C 13.417969 -10.863281 11.226562 -9.234375 8.746094 -8.855469 Z M 8.746094 -8.855469 "/></g></g></g><g fill="#603fa2" fill-opacity="1"><g transform="translate(124.311792, 135.206265)"><g><path d="M 24.992188 -18.160156 C 23.742188 -11.996094 21.433594 -9.203125 19.148438 -8.855469 C 18.273438 -8.71875 17.71875 -9.082031 17.59375 -9.910156 C 17.542969 -10.25 17.578125 -10.652344 17.652344 -11.164062 L 19.789062 -22.539062 C 19.980469 -23.5625 20.042969 -24.46875 19.917969 -25.296875 C 19.320312 -29.183594 15.566406 -31.597656 11.675781 -31 C 9.78125 -30.710938 8.339844 -30.042969 7.21875 -28.925781 C 6.792969 -29.753906 5.5 -30.054688 4.1875 -29.855469 C 2.828125 -29.644531 1.609375 -28.8125 1.332031 -27.378906 L -3.3125 -3.425781 C -3.390625 -2.964844 -3.378906 -2.566406 -3.320312 -2.179688 C -3.042969 -0.378906 -1.492188 0.328125 0.0625 0.0898438 C 1.765625 -0.171875 3.546875 -1.539062 3.941406 -3.839844 C 4.921875 -8.816406 6.234375 -15.835938 7.175781 -20.757812 C 8.113281 -23.390625 9.636719 -24.816406 11 -25.023438 C 11.875 -25.160156 12.597656 -24.671875 12.738281 -23.75 C 12.789062 -23.40625 12.757812 -22.957031 12.679688 -22.496094 L 10.664062 -11.933594 C 10.445312 -10.757812 10.367188 -9.648438 10.523438 -8.628906 C 11.207031 -4.15625 15.269531 -2.335938 19.402344 -2.96875 C 24.363281 -3.730469 29.148438 -7.898438 31.054688 -17.894531 C 31.140625 -18.304688 31.175781 -18.707031 31.125 -19.046875 C 30.886719 -20.605469 29.351562 -21.214844 27.890625 -20.992188 C 26.578125 -20.789062 25.230469 -19.839844 24.992188 -18.160156 Z M 24.992188 -18.160156 "/></g></g></g><g fill="#603fa2" fill-opacity="1"><g transform="translate(149.838794, 131.298204)"><g><path d="M 5.429688 -9.390625 L 8.484375 -25.535156 C 8.59375 -26.101562 8.617188 -26.601562 8.542969 -27.085938 C 8.238281 -29.082031 6.28125 -30.175781 4.480469 -29.898438 C 3.117188 -29.691406 1.785156 -28.640625 1.402344 -26.589844 L -1.917969 -8.960938 C -2.117188 -7.988281 -2.121094 -7.039062 -1.988281 -6.164062 C -1.484375 -2.859375 1.214844 -0.832031 4.472656 -0.683594 C -1.257812 1.535156 -6.769531 4.867188 -5.855469 10.851562 C -5.132812 15.566406 -0.277344 18.007812 4.488281 17.277344 C 9.300781 16.542969 13.429688 13.273438 14.609375 7.320312 C 14.976562 5.171875 15.425781 2.914062 15.851562 0.808594 C 22.46875 -2.445312 29.035156 -7.332031 30.828125 -18.058594 C 30.914062 -18.46875 30.902344 -18.867188 30.851562 -19.207031 C 30.597656 -20.859375 29.1875 -21.636719 27.726562 -21.414062 C 26.414062 -21.214844 25.128906 -20.171875 24.738281 -18.171875 C 23.699219 -12.933594 20.886719 -9.519531 17.394531 -6.992188 L 21.21875 -27.832031 C 21.296875 -28.292969 21.289062 -28.691406 21.234375 -29.03125 C 20.929688 -31.023438 18.972656 -32.117188 17.171875 -31.84375 C 15.808594 -31.632812 14.476562 -30.585938 14.09375 -28.535156 L 11.019531 -11.242188 C 9.867188 -8.378906 8.3125 -7.144531 7 -6.945312 C 6.125 -6.808594 5.507812 -7.261719 5.375 -8.136719 C 5.320312 -8.480469 5.351562 -8.929688 5.429688 -9.390625 Z M 7.292969 4.40625 L 6.632812 7.894531 C 6.226562 9.796875 4.863281 10.949219 3.402344 11.175781 C 2.285156 11.34375 1.695312 10.738281 1.558594 9.863281 C 1.515625 9.570312 1.503906 9.175781 1.597656 8.8125 C 2.019531 7.007812 4.257812 5.71875 7.292969 4.40625 Z M 7.292969 4.40625 "/></g></g></g><g fill="#fd6155" fill-opacity="0.302"><g transform="translate(179.629072, 132.646778)"><g/></g></g><g fill="#fd6155" fill-opacity="0.502"><g transform="translate(177.383089, 130.035965)"><g/></g></g><g fill="#603fa2" fill-opacity="1"><g transform="translate(175.137109, 127.425154)"><g/></g></g><g fill="#fd6155" fill-opacity="0.302"><g transform="translate(117.532488, 195.263214)"><g><path d="M 25.210938 -37.589844 C 24.460938 -42.558594 19.480469 -46.1875 13.246094 -45.246094 C 8.421875 -44.519531 2.867188 -41.039062 1.378906 -33.089844 L -2.085938 -14.480469 C -2.421875 -12.738281 -2.382812 -11.148438 -2.160156 -9.6875 C -1.308594 -4.039062 3.125 -1.070312 8.71875 -1.316406 C 1.976562 1.542969 -2.90625 4.175781 -1.988281 10.265625 C -1.355469 14.453125 2.609375 17.59375 8.355469 16.722656 C 13.179688 15.996094 17.269531 12.738281 18.460938 6.777344 C 18.835938 4.628906 19.339844 2.359375 19.769531 0.253906 C 26.402344 -2.992188 32.988281 -7.871094 34.757812 -18.601562 C 34.835938 -19.0625 34.828125 -19.460938 34.773438 -19.800781 C 34.53125 -21.410156 33.070312 -22.183594 31.65625 -21.972656 C 30.34375 -21.773438 29.054688 -20.730469 28.660156 -18.726562 C 27.664062 -13.445312 24.792969 -10.023438 21.238281 -7.492188 L 24.585938 -22.597656 C 24.835938 -23.929688 24.957031 -25.09375 24.816406 -26.019531 C 24.613281 -27.382812 23.832031 -28.261719 21.964844 -28.429688 C 21.453125 -28.5 20.960938 -28.476562 20.570312 -28.417969 C 18.085938 -28.042969 17.917969 -25.527344 17.042969 -21.757812 C 16.613281 -19.648438 16.121094 -16.632812 15.734375 -14.582031 C 14.980469 -10.980469 12.742188 -9 9.625 -8.527344 C 7.332031 -8.183594 5.765625 -9.339844 5.441406 -11.484375 C 5.320312 -12.261719 5.378906 -13.21875 5.570312 -14.242188 L 8.972656 -31.648438 C 9.699219 -35.394531 12.359375 -37.242188 14.261719 -37.527344 C 16.597656 -37.882812 17.28125 -36.339844 17.425781 -35.367188 C 17.789062 -32.980469 19.878906 -32 21.972656 -32.316406 C 23.972656 -32.617188 25.71875 -34.226562 25.210938 -37.589844 Z M 11.191406 3.839844 L 10.476562 7.335938 C 10.066406 9.242188 8.695312 10.394531 7.28125 10.609375 C 6.160156 10.777344 5.523438 10.175781 5.390625 9.300781 C 5 6.71875 8.191406 5.089844 11.191406 3.839844 Z M 11.191406 3.839844 "/></g></g></g><g fill="#fd6155" fill-opacity="0.302"><g transform="translate(146.654796, 190.864409)"><g><path d="M 22.5625 -17.855469 C 21.433594 -12.804688 19.484375 -8.871094 17.441406 -8.5625 C 16.757812 -8.460938 16.320312 -9.042969 16.21875 -9.722656 C 16.175781 -10.015625 16.164062 -10.414062 16.25 -10.824219 L 17.917969 -19.246094 C 18.0625 -20.265625 18.125 -21.171875 18 -22 C 17.300781 -26.628906 11.164062 -27.695312 8.308594 -28.109375 C 8.398438 -28.523438 8.378906 -28.96875 8.320312 -29.355469 C 7.980469 -31.597656 5.699219 -33.195312 3.503906 -32.863281 C 0.632812 -32.429688 -0.691406 -29.640625 -0.269531 -26.863281 C -0.0859375 -25.644531 0.542969 -24.445312 1.46875 -23.589844 L -0.636719 -13.457031 C -0.675781 -13.050781 -0.664062 -12.652344 -0.621094 -12.363281 C -0.378906 -10.753906 1.011719 -10.117188 2.375 -10.324219 C 3.742188 -10.53125 5.035156 -11.523438 5.382812 -13.167969 L 7.007812 -20.886719 C 8.4375 -20.65625 10.292969 -20.585938 10.542969 -18.929688 C 10.578125 -18.6875 10.574219 -18.386719 10.53125 -18.03125 L 9.285156 -11.765625 C 9.0625 -10.585938 9.023438 -9.535156 9.171875 -8.558594 C 9.808594 -4.320312 13.589844 -2.054688 17.632812 -2.664062 C 22.941406 -3.464844 27.050781 -8.917969 28.683594 -17.585938 C 28.734375 -17.890625 28.746094 -18.144531 28.710938 -18.386719 C 28.492188 -19.847656 26.734375 -20.578125 25.175781 -20.34375 C 23.910156 -20.152344 22.78125 -19.382812 22.5625 -17.855469 Z M 22.5625 -17.855469 "/></g></g></g><g fill="#fd6155" fill-opacity="0.302"><g transform="translate(169.689671, 187.385085)"><g><path d="M 22.574219 -17.460938 C 21.285156 -11.484375 16.515625 -8.421875 12.375 -7.796875 C 8.816406 -7.261719 6.320312 -8.628906 5.980469 -10.867188 C 5.914062 -11.304688 5.898438 -11.753906 6.019531 -12.269531 L 6.269531 -13.253906 C 7.8125 -12.589844 9.65625 -12.269531 11.605469 -12.5625 C 16.035156 -13.234375 19.515625 -16.597656 20.167969 -21.183594 C 20.269531 -22.144531 20.277344 -23.09375 20.152344 -23.921875 C 19.453125 -28.546875 15.261719 -31.550781 9.757812 -30.71875 C 5.421875 -30.066406 1.566406 -26.890625 0.597656 -21.761719 L -1.015625 -13 C -1.230469 -11.773438 -1.296875 -10.566406 -1.128906 -9.445312 C -0.253906 -3.648438 5.746094 -0.867188 12.859375 -1.941406 C 19.632812 -2.964844 26.828125 -7.441406 28.636719 -17.230469 C 28.722656 -17.640625 28.722656 -17.988281 28.675781 -18.28125 C 28.449219 -19.792969 26.960938 -20.414062 25.5 -20.195312 C 24.132812 -19.988281 22.785156 -19.035156 22.574219 -17.460938 Z M 10.480469 -24.949219 C 11.84375 -25.15625 12.890625 -24.167969 13.105469 -22.753906 C 13.164062 -22.367188 13.171875 -21.96875 13.085938 -21.558594 C 12.839844 -19.875 11.46875 -19.070312 10.007812 -18.851562 C 9.082031 -18.710938 8.125 -18.765625 7.386719 -19.050781 L 7.96875 -22.128906 C 8.273438 -23.71875 9.359375 -24.78125 10.480469 -24.949219 Z M 10.480469 -24.949219 "/></g></g></g><g fill="#fd6155" fill-opacity="0.302"><g transform="translate(192.773237, 183.898407)"><g><path d="M 22.574219 -17.460938 C 21.285156 -11.484375 16.515625 -8.421875 12.375 -7.796875 C 8.816406 -7.261719 6.320312 -8.628906 5.980469 -10.867188 C 5.914062 -11.304688 5.898438 -11.753906 6.019531 -12.269531 L 6.269531 -13.253906 C 7.8125 -12.589844 9.65625 -12.269531 11.605469 -12.5625 C 16.035156 -13.234375 19.515625 -16.597656 20.167969 -21.183594 C 20.269531 -22.144531 20.277344 -23.09375 20.152344 -23.921875 C 19.453125 -28.546875 15.261719 -31.550781 9.757812 -30.71875 C 5.421875 -30.066406 1.566406 -26.890625 0.597656 -21.761719 L -1.015625 -13 C -1.230469 -11.773438 -1.296875 -10.566406 -1.128906 -9.445312 C -0.253906 -3.648438 5.746094 -0.867188 12.859375 -1.941406 C 19.632812 -2.964844 26.828125 -7.441406 28.636719 -17.230469 C 28.722656 -17.640625 28.722656 -17.988281 28.675781 -18.28125 C 28.449219 -19.792969 26.960938 -20.414062 25.5 -20.195312 C 24.132812 -19.988281 22.785156 -19.035156 22.574219 -17.460938 Z M 10.480469 -24.949219 C 11.84375 -25.15625 12.890625 -24.167969 13.105469 -22.753906 C 13.164062 -22.367188 13.171875 -21.96875 13.085938 -21.558594 C 12.839844 -19.875 11.46875 -19.070312 10.007812 -18.851562 C 9.082031 -18.710938 8.125 -18.765625 7.386719 -19.050781 L 7.96875 -22.128906 C 8.273438 -23.71875 9.359375 -24.78125 10.480469 -24.949219 Z M 10.480469 -24.949219 "/></g></g></g><g fill="#fd6155" fill-opacity="0.302"><g transform="translate(215.856803, 180.411728)"><g><path d="M 15.316406 -16.363281 C 14.175781 -10.710938 11.496094 -7.664062 8.671875 -7.238281 C 6.917969 -6.972656 5.683594 -7.882812 5.484375 -9.199219 C 5.433594 -9.539062 5.472656 -9.945312 5.519531 -10.300781 L 8.238281 -24.613281 L 11.40625 -25.089844 C 13.890625 -25.464844 14.941406 -27.417969 14.699219 -29.023438 C 14.507812 -30.292969 13.507812 -31.285156 11.660156 -31.007812 L 9.464844 -30.675781 L 11.296875 -40.667969 C 11.339844 -41.023438 11.347656 -41.324219 11.300781 -41.617188 C 11.03125 -43.417969 9.542969 -44.6875 7.398438 -44.363281 C 5.792969 -44.121094 4.597656 -42.796875 4.269531 -41 L 2.011719 -29.550781 L -0.03125 -29.242188 C -2.664062 -28.84375 -3.53125 -27.019531 -3.296875 -25.460938 C -3.089844 -24.097656 -2.085938 -23.050781 -0.773438 -23.25 L 0.835938 -23.492188 L -1.484375 -11.136719 L -1.488281 -11.183594 C -1.703125 -9.957031 -1.734375 -8.855469 -1.582031 -7.832031 C -0.832031 -2.863281 4.042969 -0.609375 9.058594 -1.367188 C 15.296875 -2.308594 19.808594 -7.726562 21.378906 -16.132812 C 21.425781 -16.488281 21.46875 -16.84375 21.425781 -17.136719 C 21.207031 -18.597656 19.652344 -19.3125 18.144531 -19.082031 C 16.925781 -18.898438 15.664062 -18.011719 15.316406 -16.363281 Z M 15.316406 -16.363281 "/></g></g></g><g fill="#fd6155" fill-opacity="0.302"><g transform="translate(231.781546, 178.006361)"><g><path d="M 8.109375 -35.054688 C 10.300781 -35.386719 11.828125 -37.460938 11.492188 -39.699219 C 11.160156 -41.894531 9.09375 -43.375 6.902344 -43.042969 C 4.707031 -42.710938 3.171875 -40.6875 3.503906 -38.496094 C 3.839844 -36.253906 5.914062 -34.722656 8.109375 -35.054688 Z M 5.285156 -9.21875 L 8.332031 -25.324219 C 8.429688 -25.984375 8.570312 -26.703125 8.5 -27.191406 C 8.175781 -29.335938 6.398438 -30.210938 4.742188 -29.960938 C 3.230469 -29.734375 1.785156 -28.417969 1.351562 -26.011719 C 0.484375 -21.199219 -0.683594 -15.09375 -1.558594 -10.328125 C -1.703125 -9.308594 -1.894531 -7.933594 -1.769531 -7.105469 C -1.078125 -2.527344 3.117188 -0.472656 7.597656 -1.148438 C 12.371094 -1.867188 17.191406 -5.585938 19.078125 -16.183594 C 19.132812 -16.492188 19.136719 -16.792969 19.09375 -17.082031 C 18.863281 -18.59375 17.261719 -19.296875 15.800781 -19.078125 C 14.488281 -18.878906 13.273438 -18 12.917969 -16.398438 C 11.585938 -9.722656 9.304688 -7.335938 7.355469 -7.039062 C 6.238281 -6.871094 5.394531 -7.492188 5.253906 -8.417969 C 5.21875 -8.660156 5.230469 -8.910156 5.285156 -9.21875 Z M 5.285156 -9.21875 "/></g></g></g><g fill="#fd6155" fill-opacity="0.302"><g transform="translate(245.222613, 175.976143)"><g><path d="M 25.0625 -18.132812 C 23.800781 -11.964844 21.484375 -9.175781 19.195312 -8.828125 C 18.316406 -8.695312 17.761719 -9.058594 17.636719 -9.886719 C 17.585938 -10.230469 17.625 -10.632812 17.699219 -11.144531 L 19.863281 -22.53125 C 20.058594 -23.558594 20.121094 -24.464844 19.996094 -25.292969 C 19.40625 -29.1875 15.652344 -31.609375 11.757812 -31.023438 C 9.855469 -30.734375 8.414062 -30.070312 7.285156 -28.953125 C 6.859375 -29.785156 5.570312 -30.085938 4.253906 -29.890625 C 2.890625 -29.683594 1.671875 -28.851562 1.390625 -27.414062 L -3.308594 -3.4375 C -3.390625 -2.976562 -3.378906 -2.578125 -3.320312 -2.1875 C -3.046875 -0.386719 -1.496094 0.324219 0.0625 0.0898438 C 1.769531 -0.167969 3.554688 -1.535156 3.953125 -3.835938 C 4.945312 -8.820312 6.277344 -15.84375 7.226562 -20.773438 C 8.171875 -23.40625 9.703125 -24.832031 11.066406 -25.039062 C 11.941406 -25.171875 12.664062 -24.683594 12.804688 -23.757812 C 12.855469 -23.414062 12.824219 -22.960938 12.742188 -22.5 L 10.703125 -11.929688 C 10.484375 -10.75 10.402344 -9.640625 10.554688 -8.621094 C 11.234375 -4.136719 15.296875 -2.308594 19.4375 -2.9375 C 24.40625 -3.6875 29.207031 -7.847656 31.132812 -17.855469 C 31.21875 -18.269531 31.257812 -18.671875 31.207031 -19.011719 C 30.972656 -20.570312 29.433594 -21.1875 27.972656 -20.964844 C 26.65625 -20.765625 25.304688 -19.816406 25.0625 -18.132812 Z M 25.0625 -18.132812 "/></g></g></g><g fill="#fd6155" fill-opacity="0.302"><g transform="translate(270.789856, 172.114315)"><g><path d="M 18.015625 -7.054688 L 21.890625 -26.921875 C 22.078125 -27.996094 22.097656 -28.847656 22.003906 -29.480469 C 21.671875 -31.671875 20.097656 -31.882812 19.425781 -32.03125 C 19.117188 -32.085938 18.769531 -32.082031 18.429688 -32.03125 C 16.96875 -31.808594 15.570312 -30.851562 15.242188 -29.058594 C 13.320312 -30.5625 11.367188 -30.964844 8.785156 -30.574219 C 5.179688 -30.027344 1.6875 -27.410156 0.765625 -22.636719 L -1.59375 -10.222656 C -1.78125 -9.148438 -1.8125 -8.046875 -1.667969 -7.074219 C -1.085938 -3.222656 1.984375 -1.046875 5.40625 -0.816406 C 1.007812 0.746094 -4.523438 3.375 -5.253906 8.417969 C -5.375 9.28125 -5.359375 10.027344 -5.25 10.757812 C -4.535156 15.484375 0.316406 17.9375 5.089844 17.21875 C 9.914062 16.488281 14.054688 13.222656 15.199219 7.269531 L 16.503906 0.746094 C 23.140625 -2.5 29.726562 -7.378906 31.542969 -18.117188 C 31.628906 -18.527344 31.617188 -18.925781 31.566406 -19.265625 C 31.316406 -20.921875 29.902344 -21.707031 28.441406 -21.484375 C 27.128906 -21.285156 25.839844 -20.246094 25.445312 -18.242188 C 24.394531 -13 21.570312 -9.585938 18.015625 -7.054688 Z M 13.648438 -21.792969 L 11.5 -10.953125 C 10.804688 -8.957031 9.355469 -7.34375 7.699219 -7.089844 C 6.527344 -6.914062 5.5625 -7.367188 5.402344 -8.4375 C 5.363281 -8.683594 5.402344 -9.085938 5.449219 -9.441406 L 7.964844 -22.476562 C 8.246094 -23.914062 9.261719 -24.765625 10.335938 -24.929688 C 11.84375 -25.15625 13.328125 -24.234375 13.59375 -22.480469 C 13.625 -22.285156 13.660156 -22.042969 13.648438 -21.792969 Z M 7.929688 4.332031 L 7.261719 7.820312 C 6.851562 9.726562 5.480469 10.878906 4.019531 11.101562 C 2.898438 11.269531 2.257812 10.667969 2.125 9.792969 C 2.082031 9.5 2.121094 9.097656 2.214844 8.734375 C 2.640625 6.925781 4.886719 5.640625 7.929688 4.332031 Z M 7.929688 4.332031 "/></g></g></g><g fill="#fd6155" fill-opacity="0.502"><g transform="translate(115.288767, 192.64444)"><g><path d="M 25.210938 -37.589844 C 24.460938 -42.558594 19.480469 -46.1875 13.246094 -45.246094 C 8.421875 -44.519531 2.867188 -41.039062 1.378906 -33.089844 L -2.085938 -14.480469 C -2.421875 -12.738281 -2.382812 -11.148438 -2.160156 -9.6875 C -1.308594 -4.039062 3.125 -1.070312 8.71875 -1.316406 C 1.976562 1.542969 -2.90625 4.175781 -1.988281 10.265625 C -1.355469 14.453125 2.609375 17.59375 8.355469 16.722656 C 13.179688 15.996094 17.269531 12.738281 18.460938 6.777344 C 18.835938 4.628906 19.339844 2.359375 19.769531 0.253906 C 26.402344 -2.992188 32.988281 -7.871094 34.757812 -18.601562 C 34.835938 -19.0625 34.828125 -19.460938 34.773438 -19.800781 C 34.53125 -21.410156 33.070312 -22.183594 31.65625 -21.972656 C 30.34375 -21.773438 29.054688 -20.730469 28.660156 -18.726562 C 27.664062 -13.445312 24.792969 -10.023438 21.238281 -7.492188 L 24.585938 -22.597656 C 24.835938 -23.929688 24.957031 -25.09375 24.816406 -26.019531 C 24.613281 -27.382812 23.832031 -28.261719 21.964844 -28.429688 C 21.453125 -28.5 20.960938 -28.476562 20.570312 -28.417969 C 18.085938 -28.042969 17.917969 -25.527344 17.042969 -21.757812 C 16.613281 -19.648438 16.121094 -16.632812 15.734375 -14.582031 C 14.980469 -10.980469 12.742188 -9 9.625 -8.527344 C 7.332031 -8.183594 5.765625 -9.339844 5.441406 -11.484375 C 5.320312 -12.261719 5.378906 -13.21875 5.570312 -14.242188 L 8.972656 -31.648438 C 9.699219 -35.394531 12.359375 -37.242188 14.261719 -37.527344 C 16.597656 -37.882812 17.28125 -36.339844 17.425781 -35.367188 C 17.789062 -32.980469 19.878906 -32 21.972656 -32.316406 C 23.972656 -32.617188 25.71875 -34.226562 25.210938 -37.589844 Z M 11.191406 3.839844 L 10.476562 7.335938 C 10.066406 9.242188 8.695312 10.394531 7.28125 10.609375 C 6.160156 10.777344 5.523438 10.175781 5.390625 9.300781 C 5 6.71875 8.191406 5.089844 11.191406 3.839844 Z M 11.191406 3.839844 "/></g></g></g><g fill="#fd6155" fill-opacity="0.502"><g transform="translate(144.411075, 188.245635)"><g><path d="M 22.5625 -17.855469 C 21.433594 -12.804688 19.484375 -8.871094 17.441406 -8.5625 C 16.757812 -8.460938 16.320312 -9.042969 16.21875 -9.722656 C 16.175781 -10.015625 16.164062 -10.414062 16.25 -10.824219 L 17.917969 -19.246094 C 18.0625 -20.265625 18.125 -21.171875 18 -22 C 17.300781 -26.628906 11.164062 -27.695312 8.308594 -28.109375 C 8.398438 -28.523438 8.378906 -28.96875 8.320312 -29.355469 C 7.980469 -31.597656 5.699219 -33.195312 3.503906 -32.863281 C 0.632812 -32.429688 -0.691406 -29.640625 -0.269531 -26.863281 C -0.0859375 -25.644531 0.542969 -24.445312 1.46875 -23.589844 L -0.636719 -13.457031 C -0.675781 -13.050781 -0.664062 -12.652344 -0.621094 -12.363281 C -0.378906 -10.753906 1.011719 -10.117188 2.375 -10.324219 C 3.742188 -10.53125 5.035156 -11.523438 5.382812 -13.167969 L 7.007812 -20.886719 C 8.4375 -20.65625 10.292969 -20.585938 10.542969 -18.929688 C 10.578125 -18.6875 10.574219 -18.386719 10.53125 -18.03125 L 9.285156 -11.765625 C 9.0625 -10.585938 9.023438 -9.535156 9.171875 -8.558594 C 9.808594 -4.320312 13.589844 -2.054688 17.632812 -2.664062 C 22.941406 -3.464844 27.050781 -8.917969 28.683594 -17.585938 C 28.734375 -17.890625 28.746094 -18.144531 28.710938 -18.386719 C 28.492188 -19.847656 26.734375 -20.578125 25.175781 -20.34375 C 23.910156 -20.152344 22.78125 -19.382812 22.5625 -17.855469 Z M 22.5625 -17.855469 "/></g></g></g><g fill="#fd6155" fill-opacity="0.502"><g transform="translate(167.44595, 184.766311)"><g><path d="M 22.574219 -17.460938 C 21.285156 -11.484375 16.515625 -8.421875 12.375 -7.796875 C 8.816406 -7.261719 6.320312 -8.628906 5.980469 -10.867188 C 5.914062 -11.304688 5.898438 -11.753906 6.019531 -12.269531 L 6.269531 -13.253906 C 7.8125 -12.589844 9.65625 -12.269531 11.605469 -12.5625 C 16.035156 -13.234375 19.515625 -16.597656 20.167969 -21.183594 C 20.269531 -22.144531 20.277344 -23.09375 20.152344 -23.921875 C 19.453125 -28.546875 15.261719 -31.550781 9.757812 -30.71875 C 5.421875 -30.066406 1.566406 -26.890625 0.597656 -21.761719 L -1.015625 -13 C -1.230469 -11.773438 -1.296875 -10.566406 -1.128906 -9.445312 C -0.253906 -3.648438 5.746094 -0.867188 12.859375 -1.941406 C 19.632812 -2.964844 26.828125 -7.441406 28.636719 -17.230469 C 28.722656 -17.640625 28.722656 -17.988281 28.675781 -18.28125 C 28.449219 -19.792969 26.960938 -20.414062 25.5 -20.195312 C 24.132812 -19.988281 22.785156 -19.035156 22.574219 -17.460938 Z M 10.480469 -24.949219 C 11.84375 -25.15625 12.890625 -24.167969 13.105469 -22.753906 C 13.164062 -22.367188 13.171875 -21.96875 13.085938 -21.558594 C 12.839844 -19.875 11.46875 -19.070312 10.007812 -18.851562 C 9.082031 -18.710938 8.125 -18.765625 7.386719 -19.050781 L 7.96875 -22.128906 C 8.273438 -23.71875 9.359375 -24.78125 10.480469 -24.949219 Z M 10.480469 -24.949219 "/></g></g></g><g fill="#fd6155" fill-opacity="0.502"><g transform="translate(190.529516, 181.279633)"><g><path d="M 22.574219 -17.460938 C 21.285156 -11.484375 16.515625 -8.421875 12.375 -7.796875 C 8.816406 -7.261719 6.320312 -8.628906 5.980469 -10.867188 C 5.914062 -11.304688 5.898438 -11.753906 6.019531 -12.269531 L 6.269531 -13.253906 C 7.8125 -12.589844 9.65625 -12.269531 11.605469 -12.5625 C 16.035156 -13.234375 19.515625 -16.597656 20.167969 -21.183594 C 20.269531 -22.144531 20.277344 -23.09375 20.152344 -23.921875 C 19.453125 -28.546875 15.261719 -31.550781 9.757812 -30.71875 C 5.421875 -30.066406 1.566406 -26.890625 0.597656 -21.761719 L -1.015625 -13 C -1.230469 -11.773438 -1.296875 -10.566406 -1.128906 -9.445312 C -0.253906 -3.648438 5.746094 -0.867188 12.859375 -1.941406 C 19.632812 -2.964844 26.828125 -7.441406 28.636719 -17.230469 C 28.722656 -17.640625 28.722656 -17.988281 28.675781 -18.28125 C 28.449219 -19.792969 26.960938 -20.414062 25.5 -20.195312 C 24.132812 -19.988281 22.785156 -19.035156 22.574219 -17.460938 Z M 10.480469 -24.949219 C 11.84375 -25.15625 12.890625 -24.167969 13.105469 -22.753906 C 13.164062 -22.367188 13.171875 -21.96875 13.085938 -21.558594 C 12.839844 -19.875 11.46875 -19.070312 10.007812 -18.851562 C 9.082031 -18.710938 8.125 -18.765625 7.386719 -19.050781 L 7.96875 -22.128906 C 8.273438 -23.71875 9.359375 -24.78125 10.480469 -24.949219 Z M 10.480469 -24.949219 "/></g></g></g><g fill="#fd6155" fill-opacity="0.502"><g transform="translate(213.613082, 177.792954)"><g><path d="M 15.316406 -16.363281 C 14.175781 -10.710938 11.496094 -7.664062 8.671875 -7.238281 C 6.917969 -6.972656 5.683594 -7.882812 5.484375 -9.199219 C 5.433594 -9.539062 5.472656 -9.945312 5.519531 -10.300781 L 8.238281 -24.613281 L 11.40625 -25.089844 C 13.890625 -25.464844 14.941406 -27.417969 14.699219 -29.023438 C 14.507812 -30.292969 13.507812 -31.285156 11.660156 -31.007812 L 9.464844 -30.675781 L 11.296875 -40.667969 C 11.339844 -41.023438 11.347656 -41.324219 11.300781 -41.617188 C 11.03125 -43.417969 9.542969 -44.6875 7.398438 -44.363281 C 5.792969 -44.121094 4.597656 -42.796875 4.269531 -41 L 2.011719 -29.550781 L -0.03125 -29.242188 C -2.664062 -28.84375 -3.53125 -27.019531 -3.296875 -25.460938 C -3.089844 -24.097656 -2.085938 -23.050781 -0.773438 -23.25 L 0.835938 -23.492188 L -1.484375 -11.136719 L -1.488281 -11.183594 C -1.703125 -9.957031 -1.734375 -8.855469 -1.582031 -7.832031 C -0.832031 -2.863281 4.042969 -0.609375 9.058594 -1.367188 C 15.296875 -2.308594 19.808594 -7.726562 21.378906 -16.132812 C 21.425781 -16.488281 21.46875 -16.84375 21.425781 -17.136719 C 21.207031 -18.597656 19.652344 -19.3125 18.144531 -19.082031 C 16.925781 -18.898438 15.664062 -18.011719 15.316406 -16.363281 Z M 15.316406 -16.363281 "/></g></g></g><g fill="#fd6155" fill-opacity="0.502"><g transform="translate(229.537825, 175.387587)"><g><path d="M 8.109375 -35.054688 C 10.300781 -35.386719 11.828125 -37.460938 11.492188 -39.699219 C 11.160156 -41.894531 9.09375 -43.375 6.902344 -43.042969 C 4.707031 -42.710938 3.171875 -40.6875 3.503906 -38.496094 C 3.839844 -36.253906 5.914062 -34.722656 8.109375 -35.054688 Z M 5.285156 -9.21875 L 8.332031 -25.324219 C 8.429688 -25.984375 8.570312 -26.703125 8.5 -27.191406 C 8.175781 -29.335938 6.398438 -30.210938 4.742188 -29.960938 C 3.230469 -29.734375 1.785156 -28.417969 1.351562 -26.011719 C 0.484375 -21.199219 -0.683594 -15.09375 -1.558594 -10.328125 C -1.703125 -9.308594 -1.894531 -7.933594 -1.769531 -7.105469 C -1.078125 -2.527344 3.117188 -0.472656 7.597656 -1.148438 C 12.371094 -1.867188 17.191406 -5.585938 19.078125 -16.183594 C 19.132812 -16.492188 19.136719 -16.792969 19.09375 -17.082031 C 18.863281 -18.59375 17.261719 -19.296875 15.800781 -19.078125 C 14.488281 -18.878906 13.273438 -18 12.917969 -16.398438 C 11.585938 -9.722656 9.304688 -7.335938 7.355469 -7.039062 C 6.238281 -6.871094 5.394531 -7.492188 5.253906 -8.417969 C 5.21875 -8.660156 5.230469 -8.910156 5.285156 -9.21875 Z M 5.285156 -9.21875 "/></g></g></g><g fill="#fd6155" fill-opacity="0.502"><g transform="translate(242.978891, 173.357369)"><g><path d="M 25.0625 -18.132812 C 23.800781 -11.964844 21.484375 -9.175781 19.195312 -8.828125 C 18.316406 -8.695312 17.761719 -9.058594 17.636719 -9.886719 C 17.585938 -10.230469 17.625 -10.632812 17.699219 -11.144531 L 19.863281 -22.53125 C 20.058594 -23.558594 20.121094 -24.464844 19.996094 -25.292969 C 19.40625 -29.1875 15.652344 -31.609375 11.757812 -31.023438 C 9.855469 -30.734375 8.414062 -30.070312 7.285156 -28.953125 C 6.859375 -29.785156 5.570312 -30.085938 4.253906 -29.890625 C 2.890625 -29.683594 1.671875 -28.851562 1.390625 -27.414062 L -3.308594 -3.4375 C -3.390625 -2.976562 -3.378906 -2.578125 -3.320312 -2.1875 C -3.046875 -0.386719 -1.496094 0.324219 0.0625 0.0898438 C 1.769531 -0.167969 3.554688 -1.535156 3.953125 -3.835938 C 4.945312 -8.820312 6.277344 -15.84375 7.226562 -20.773438 C 8.171875 -23.40625 9.703125 -24.832031 11.066406 -25.039062 C 11.941406 -25.171875 12.664062 -24.683594 12.804688 -23.757812 C 12.855469 -23.414062 12.824219 -22.960938 12.742188 -22.5 L 10.703125 -11.929688 C 10.484375 -10.75 10.402344 -9.640625 10.554688 -8.621094 C 11.234375 -4.136719 15.296875 -2.308594 19.4375 -2.9375 C 24.40625 -3.6875 29.207031 -7.847656 31.132812 -17.855469 C 31.21875 -18.269531 31.257812 -18.671875 31.207031 -19.011719 C 30.972656 -20.570312 29.433594 -21.1875 27.972656 -20.964844 C 26.65625 -20.765625 25.304688 -19.816406 25.0625 -18.132812 Z M 25.0625 -18.132812 "/></g></g></g><g fill="#fd6155" fill-opacity="0.502"><g transform="translate(268.546134, 169.495541)"><g><path d="M 18.015625 -7.054688 L 21.890625 -26.921875 C 22.078125 -27.996094 22.097656 -28.847656 22.003906 -29.480469 C 21.671875 -31.671875 20.097656 -31.882812 19.425781 -32.03125 C 19.117188 -32.085938 18.769531 -32.082031 18.429688 -32.03125 C 16.96875 -31.808594 15.570312 -30.851562 15.242188 -29.058594 C 13.320312 -30.5625 11.367188 -30.964844 8.785156 -30.574219 C 5.179688 -30.027344 1.6875 -27.410156 0.765625 -22.636719 L -1.59375 -10.222656 C -1.78125 -9.148438 -1.8125 -8.046875 -1.667969 -7.074219 C -1.085938 -3.222656 1.984375 -1.046875 5.40625 -0.816406 C 1.007812 0.746094 -4.523438 3.375 -5.253906 8.417969 C -5.375 9.28125 -5.359375 10.027344 -5.25 10.757812 C -4.535156 15.484375 0.316406 17.9375 5.089844 17.21875 C 9.914062 16.488281 14.054688 13.222656 15.199219 7.269531 L 16.503906 0.746094 C 23.140625 -2.5 29.726562 -7.378906 31.542969 -18.117188 C 31.628906 -18.527344 31.617188 -18.925781 31.566406 -19.265625 C 31.316406 -20.921875 29.902344 -21.707031 28.441406 -21.484375 C 27.128906 -21.285156 25.839844 -20.246094 25.445312 -18.242188 C 24.394531 -13 21.570312 -9.585938 18.015625 -7.054688 Z M 13.648438 -21.792969 L 11.5 -10.953125 C 10.804688 -8.957031 9.355469 -7.34375 7.699219 -7.089844 C 6.527344 -6.914062 5.5625 -7.367188 5.402344 -8.4375 C 5.363281 -8.683594 5.402344 -9.085938 5.449219 -9.441406 L 7.964844 -22.476562 C 8.246094 -23.914062 9.261719 -24.765625 10.335938 -24.929688 C 11.84375 -25.15625 13.328125 -24.234375 13.59375 -22.480469 C 13.625 -22.285156 13.660156 -22.042969 13.648438 -21.792969 Z M 7.929688 4.332031 L 7.261719 7.820312 C 6.851562 9.726562 5.480469 10.878906 4.019531 11.101562 C 2.898438 11.269531 2.257812 10.667969 2.125 9.792969 C 2.082031 9.5 2.121094 9.097656 2.214844 8.734375 C 2.640625 6.925781 4.886719 5.640625 7.929688 4.332031 Z M 7.929688 4.332031 "/></g></g></g><g fill="#603fa2" fill-opacity="1"><g transform="translate(113.04505, 190.025666)"><g><path d="M 25.210938 -37.589844 C 24.460938 -42.558594 19.480469 -46.1875 13.246094 -45.246094 C 8.421875 -44.519531 2.867188 -41.039062 1.378906 -33.089844 L -2.085938 -14.480469 C -2.421875 -12.738281 -2.382812 -11.148438 -2.160156 -9.6875 C -1.308594 -4.039062 3.125 -1.070312 8.71875 -1.316406 C 1.976562 1.542969 -2.90625 4.175781 -1.988281 10.265625 C -1.355469 14.453125 2.609375 17.59375 8.355469 16.722656 C 13.179688 15.996094 17.269531 12.738281 18.460938 6.777344 C 18.835938 4.628906 19.339844 2.359375 19.769531 0.253906 C 26.402344 -2.992188 32.988281 -7.871094 34.757812 -18.601562 C 34.835938 -19.0625 34.828125 -19.460938 34.773438 -19.800781 C 34.53125 -21.410156 33.070312 -22.183594 31.65625 -21.972656 C 30.34375 -21.773438 29.054688 -20.730469 28.660156 -18.726562 C 27.664062 -13.445312 24.792969 -10.023438 21.238281 -7.492188 L 24.585938 -22.597656 C 24.835938 -23.929688 24.957031 -25.09375 24.816406 -26.019531 C 24.613281 -27.382812 23.832031 -28.261719 21.964844 -28.429688 C 21.453125 -28.5 20.960938 -28.476562 20.570312 -28.417969 C 18.085938 -28.042969 17.917969 -25.527344 17.042969 -21.757812 C 16.613281 -19.648438 16.121094 -16.632812 15.734375 -14.582031 C 14.980469 -10.980469 12.742188 -9 9.625 -8.527344 C 7.332031 -8.183594 5.765625 -9.339844 5.441406 -11.484375 C 5.320312 -12.261719 5.378906 -13.21875 5.570312 -14.242188 L 8.972656 -31.648438 C 9.699219 -35.394531 12.359375 -37.242188 14.261719 -37.527344 C 16.597656 -37.882812 17.28125 -36.339844 17.425781 -35.367188 C 17.789062 -32.980469 19.878906 -32 21.972656 -32.316406 C 23.972656 -32.617188 25.71875 -34.226562 25.210938 -37.589844 Z M 11.191406 3.839844 L 10.476562 7.335938 C 10.066406 9.242188 8.695312 10.394531 7.28125 10.609375 C 6.160156 10.777344 5.523438 10.175781 5.390625 9.300781 C 5 6.71875 8.191406 5.089844 11.191406 3.839844 Z M 11.191406 3.839844 "/></g></g></g><g fill="#603fa2" fill-opacity="1"><g transform="translate(142.167358, 185.62686)"><g><path d="M 22.5625 -17.855469 C 21.433594 -12.804688 19.484375 -8.871094 17.441406 -8.5625 C 16.757812 -8.460938 16.320312 -9.042969 16.21875 -9.722656 C 16.175781 -10.015625 16.164062 -10.414062 16.25 -10.824219 L 17.917969 -19.246094 C 18.0625 -20.265625 18.125 -21.171875 18 -22 C 17.300781 -26.628906 11.164062 -27.695312 8.308594 -28.109375 C 8.398438 -28.523438 8.378906 -28.96875 8.320312 -29.355469 C 7.980469 -31.597656 5.699219 -33.195312 3.503906 -32.863281 C 0.632812 -32.429688 -0.691406 -29.640625 -0.269531 -26.863281 C -0.0859375 -25.644531 0.542969 -24.445312 1.46875 -23.589844 L -0.636719 -13.457031 C -0.675781 -13.050781 -0.664062 -12.652344 -0.621094 -12.363281 C -0.378906 -10.753906 1.011719 -10.117188 2.375 -10.324219 C 3.742188 -10.53125 5.035156 -11.523438 5.382812 -13.167969 L 7.007812 -20.886719 C 8.4375 -20.65625 10.292969 -20.585938 10.542969 -18.929688 C 10.578125 -18.6875 10.574219 -18.386719 10.53125 -18.03125 L 9.285156 -11.765625 C 9.0625 -10.585938 9.023438 -9.535156 9.171875 -8.558594 C 9.808594 -4.320312 13.589844 -2.054688 17.632812 -2.664062 C 22.941406 -3.464844 27.050781 -8.917969 28.683594 -17.585938 C 28.734375 -17.890625 28.746094 -18.144531 28.710938 -18.386719 C 28.492188 -19.847656 26.734375 -20.578125 25.175781 -20.34375 C 23.910156 -20.152344 22.78125 -19.382812 22.5625 -17.855469 Z M 22.5625 -17.855469 "/></g></g></g><g fill="#603fa2" fill-opacity="1"><g transform="translate(165.202233, 182.147537)"><g><path d="M 22.574219 -17.460938 C 21.285156 -11.484375 16.515625 -8.421875 12.375 -7.796875 C 8.816406 -7.261719 6.320312 -8.628906 5.980469 -10.867188 C 5.914062 -11.304688 5.898438 -11.753906 6.019531 -12.269531 L 6.269531 -13.253906 C 7.8125 -12.589844 9.65625 -12.269531 11.605469 -12.5625 C 16.035156 -13.234375 19.515625 -16.597656 20.167969 -21.183594 C 20.269531 -22.144531 20.277344 -23.09375 20.152344 -23.921875 C 19.453125 -28.546875 15.261719 -31.550781 9.757812 -30.71875 C 5.421875 -30.066406 1.566406 -26.890625 0.597656 -21.761719 L -1.015625 -13 C -1.230469 -11.773438 -1.296875 -10.566406 -1.128906 -9.445312 C -0.253906 -3.648438 5.746094 -0.867188 12.859375 -1.941406 C 19.632812 -2.964844 26.828125 -7.441406 28.636719 -17.230469 C 28.722656 -17.640625 28.722656 -17.988281 28.675781 -18.28125 C 28.449219 -19.792969 26.960938 -20.414062 25.5 -20.195312 C 24.132812 -19.988281 22.785156 -19.035156 22.574219 -17.460938 Z M 10.480469 -24.949219 C 11.84375 -25.15625 12.890625 -24.167969 13.105469 -22.753906 C 13.164062 -22.367188 13.171875 -21.96875 13.085938 -21.558594 C 12.839844 -19.875 11.46875 -19.070312 10.007812 -18.851562 C 9.082031 -18.710938 8.125 -18.765625 7.386719 -19.050781 L 7.96875 -22.128906 C 8.273438 -23.71875 9.359375 -24.78125 10.480469 -24.949219 Z M 10.480469 -24.949219 "/></g></g></g><g fill="#603fa2" fill-opacity="1"><g transform="translate(188.285799, 178.660858)"><g><path d="M 22.574219 -17.460938 C 21.285156 -11.484375 16.515625 -8.421875 12.375 -7.796875 C 8.816406 -7.261719 6.320312 -8.628906 5.980469 -10.867188 C 5.914062 -11.304688 5.898438 -11.753906 6.019531 -12.269531 L 6.269531 -13.253906 C 7.8125 -12.589844 9.65625 -12.269531 11.605469 -12.5625 C 16.035156 -13.234375 19.515625 -16.597656 20.167969 -21.183594 C 20.269531 -22.144531 20.277344 -23.09375 20.152344 -23.921875 C 19.453125 -28.546875 15.261719 -31.550781 9.757812 -30.71875 C 5.421875 -30.066406 1.566406 -26.890625 0.597656 -21.761719 L -1.015625 -13 C -1.230469 -11.773438 -1.296875 -10.566406 -1.128906 -9.445312 C -0.253906 -3.648438 5.746094 -0.867188 12.859375 -1.941406 C 19.632812 -2.964844 26.828125 -7.441406 28.636719 -17.230469 C 28.722656 -17.640625 28.722656 -17.988281 28.675781 -18.28125 C 28.449219 -19.792969 26.960938 -20.414062 25.5 -20.195312 C 24.132812 -19.988281 22.785156 -19.035156 22.574219 -17.460938 Z M 10.480469 -24.949219 C 11.84375 -25.15625 12.890625 -24.167969 13.105469 -22.753906 C 13.164062 -22.367188 13.171875 -21.96875 13.085938 -21.558594 C 12.839844 -19.875 11.46875 -19.070312 10.007812 -18.851562 C 9.082031 -18.710938 8.125 -18.765625 7.386719 -19.050781 L 7.96875 -22.128906 C 8.273438 -23.71875 9.359375 -24.78125 10.480469 -24.949219 Z M 10.480469 -24.949219 "/></g></g></g><g fill="#603fa2" fill-opacity="1"><g transform="translate(211.369365, 175.17418)"><g><path d="M 15.316406 -16.363281 C 14.175781 -10.710938 11.496094 -7.664062 8.671875 -7.238281 C 6.917969 -6.972656 5.683594 -7.882812 5.484375 -9.199219 C 5.433594 -9.539062 5.472656 -9.945312 5.519531 -10.300781 L 8.238281 -24.613281 L 11.40625 -25.089844 C 13.890625 -25.464844 14.941406 -27.417969 14.699219 -29.023438 C 14.507812 -30.292969 13.507812 -31.285156 11.660156 -31.007812 L 9.464844 -30.675781 L 11.296875 -40.667969 C 11.339844 -41.023438 11.347656 -41.324219 11.300781 -41.617188 C 11.03125 -43.417969 9.542969 -44.6875 7.398438 -44.363281 C 5.792969 -44.121094 4.597656 -42.796875 4.269531 -41 L 2.011719 -29.550781 L -0.03125 -29.242188 C -2.664062 -28.84375 -3.53125 -27.019531 -3.296875 -25.460938 C -3.089844 -24.097656 -2.085938 -23.050781 -0.773438 -23.25 L 0.835938 -23.492188 L -1.484375 -11.136719 L -1.488281 -11.183594 C -1.703125 -9.957031 -1.734375 -8.855469 -1.582031 -7.832031 C -0.832031 -2.863281 4.042969 -0.609375 9.058594 -1.367188 C 15.296875 -2.308594 19.808594 -7.726562 21.378906 -16.132812 C 21.425781 -16.488281 21.46875 -16.84375 21.425781 -17.136719 C 21.207031 -18.597656 19.652344 -19.3125 18.144531 -19.082031 C 16.925781 -18.898438 15.664062 -18.011719 15.316406 -16.363281 Z M 15.316406 -16.363281 "/></g></g></g><g fill="#603fa2" fill-opacity="1"><g transform="translate(227.294108, 172.768813)"><g><path d="M 8.109375 -35.054688 C 10.300781 -35.386719 11.828125 -37.460938 11.492188 -39.699219 C 11.160156 -41.894531 9.09375 -43.375 6.902344 -43.042969 C 4.707031 -42.710938 3.171875 -40.6875 3.503906 -38.496094 C 3.839844 -36.253906 5.914062 -34.722656 8.109375 -35.054688 Z M 5.285156 -9.21875 L 8.332031 -25.324219 C 8.429688 -25.984375 8.570312 -26.703125 8.5 -27.191406 C 8.175781 -29.335938 6.398438 -30.210938 4.742188 -29.960938 C 3.230469 -29.734375 1.785156 -28.417969 1.351562 -26.011719 C 0.484375 -21.199219 -0.683594 -15.09375 -1.558594 -10.328125 C -1.703125 -9.308594 -1.894531 -7.933594 -1.769531 -7.105469 C -1.078125 -2.527344 3.117188 -0.472656 7.597656 -1.148438 C 12.371094 -1.867188 17.191406 -5.585938 19.078125 -16.183594 C 19.132812 -16.492188 19.136719 -16.792969 19.09375 -17.082031 C 18.863281 -18.59375 17.261719 -19.296875 15.800781 -19.078125 C 14.488281 -18.878906 13.273438 -18 12.917969 -16.398438 C 11.585938 -9.722656 9.304688 -7.335938 7.355469 -7.039062 C 6.238281 -6.871094 5.394531 -7.492188 5.253906 -8.417969 C 5.21875 -8.660156 5.230469 -8.910156 5.285156 -9.21875 Z M 5.285156 -9.21875 "/></g></g></g><g fill="#603fa2" fill-opacity="1"><g transform="translate(240.735175, 170.738594)"><g><path d="M 25.0625 -18.132812 C 23.800781 -11.964844 21.484375 -9.175781 19.195312 -8.828125 C 18.316406 -8.695312 17.761719 -9.058594 17.636719 -9.886719 C 17.585938 -10.230469 17.625 -10.632812 17.699219 -11.144531 L 19.863281 -22.53125 C 20.058594 -23.558594 20.121094 -24.464844 19.996094 -25.292969 C 19.40625 -29.1875 15.652344 -31.609375 11.757812 -31.023438 C 9.855469 -30.734375 8.414062 -30.070312 7.285156 -28.953125 C 6.859375 -29.785156 5.570312 -30.085938 4.253906 -29.890625 C 2.890625 -29.683594 1.671875 -28.851562 1.390625 -27.414062 L -3.308594 -3.4375 C -3.390625 -2.976562 -3.378906 -2.578125 -3.320312 -2.1875 C -3.046875 -0.386719 -1.496094 0.324219 0.0625 0.0898438 C 1.769531 -0.167969 3.554688 -1.535156 3.953125 -3.835938 C 4.945312 -8.820312 6.277344 -15.84375 7.226562 -20.773438 C 8.171875 -23.40625 9.703125 -24.832031 11.066406 -25.039062 C 11.941406 -25.171875 12.664062 -24.683594 12.804688 -23.757812 C 12.855469 -23.414062 12.824219 -22.960938 12.742188 -22.5 L 10.703125 -11.929688 C 10.484375 -10.75 10.402344 -9.640625 10.554688 -8.621094 C 11.234375 -4.136719 15.296875 -2.308594 19.4375 -2.9375 C 24.40625 -3.6875 29.207031 -7.847656 31.132812 -17.855469 C 31.21875 -18.269531 31.257812 -18.671875 31.207031 -19.011719 C 30.972656 -20.570312 29.433594 -21.1875 27.972656 -20.964844 C 26.65625 -20.765625 25.304688 -19.816406 25.0625 -18.132812 Z M 25.0625 -18.132812 "/></g></g></g><g fill="#603fa2" fill-opacity="1"><g transform="translate(266.302418, 166.876767)"><g><path d="M 18.015625 -7.054688 L 21.890625 -26.921875 C 22.078125 -27.996094 22.097656 -28.847656 22.003906 -29.480469 C 21.671875 -31.671875 20.097656 -31.882812 19.425781 -32.03125 C 19.117188 -32.085938 18.769531 -32.082031 18.429688 -32.03125 C 16.96875 -31.808594 15.570312 -30.851562 15.242188 -29.058594 C 13.320312 -30.5625 11.367188 -30.964844 8.785156 -30.574219 C 5.179688 -30.027344 1.6875 -27.410156 0.765625 -22.636719 L -1.59375 -10.222656 C -1.78125 -9.148438 -1.8125 -8.046875 -1.667969 -7.074219 C -1.085938 -3.222656 1.984375 -1.046875 5.40625 -0.816406 C 1.007812 0.746094 -4.523438 3.375 -5.253906 8.417969 C -5.375 9.28125 -5.359375 10.027344 -5.25 10.757812 C -4.535156 15.484375 0.316406 17.9375 5.089844 17.21875 C 9.914062 16.488281 14.054688 13.222656 15.199219 7.269531 L 16.503906 0.746094 C 23.140625 -2.5 29.726562 -7.378906 31.542969 -18.117188 C 31.628906 -18.527344 31.617188 -18.925781 31.566406 -19.265625 C 31.316406 -20.921875 29.902344 -21.707031 28.441406 -21.484375 C 27.128906 -21.285156 25.839844 -20.246094 25.445312 -18.242188 C 24.394531 -13 21.570312 -9.585938 18.015625 -7.054688 Z M 13.648438 -21.792969 L 11.5 -10.953125 C 10.804688 -8.957031 9.355469 -7.34375 7.699219 -7.089844 C 6.527344 -6.914062 5.5625 -7.367188 5.402344 -8.4375 C 5.363281 -8.683594 5.402344 -9.085938 5.449219 -9.441406 L 7.964844 -22.476562 C 8.246094 -23.914062 9.261719 -24.765625 10.335938 -24.929688 C 11.84375 -25.15625 13.328125 -24.234375 13.59375 -22.480469 C 13.625 -22.285156 13.660156 -22.042969 13.648438 -21.792969 Z M 7.929688 4.332031 L 7.261719 7.820312 C 6.851562 9.726562 5.480469 10.878906 4.019531 11.101562 C 2.898438 11.269531 2.257812 10.667969 2.125 9.792969 C 2.082031 9.5 2.121094 9.097656 2.214844 8.734375 C 2.640625 6.925781 4.886719 5.640625 7.929688 4.332031 Z M 7.929688 4.332031 "/></g></g></g></svg>